Simulation
nRows=28
nColumns=15
endheader
time  TH_x TH_y TH_z SC_y  SC_z  SC_x  AC_y  AC_z  AC_x  GH_y  GH_z  GH_yy  EL_x  PS_y
0.0  0.000000  0.000000  0.000000  -32.20070910619991  0.9348584517145141  36.67912042394239  51.4907512535703  -16.315830024571213  -26.33053314244108  40.39482526376223  -2.9246094713629773  -9.849553363548456  22.392609165256342  0.000000
0.031  0.000000  0.000000  0.000000  -31.811155617465033  0.6536759408040735  35.9931146234387  50.934007071595666  -16.9631833981828  -26.660852425191695  40.250230560271206  -3.42690689184339  -10.014603686274691  22.385363847325934  0.000000
0.062  0.000000  0.000000  0.000000  -31.301481015263683  0.33306860316554243  35.1523037265004  50.31740153358965  -17.624229623836495  -26.897960462426393  40.04538040224873  -3.6941928380609497  -10.222983591745193  22.31530228204526  0.000000
0.093  0.000000  0.000000  0.000000  -30.94228748896971  -0.05524119217861692  34.28586381750565  49.822028492904124  -18.256521635041082  -27.004221132336045  39.79928651749181  -3.6982840845570846  -10.429165423208653  22.24697767413965  0.000000
0.124  0.000000  0.000000  0.000000  -30.674346686208988  -0.4435853770196045  33.48398500255249  49.46060238041004  -18.828884791733966  -27.00951289583966  39.529489459243166  -3.5061465007818104  -10.613122860432567  22.24156692412241  0.000000
0.155  0.000000  0.000000  0.000000  -30.450810333082213  -0.7932828956784395  32.76630799217193  49.20323222128379  -19.31443942763339  -26.93602666685297  39.22903435411784  -3.1540503039188215  -10.783619968476353  22.269298406179438  0.000000
0.186  0.000000  0.000000  0.000000  -30.25988794725711  -1.0986933282910092  32.15173410748722  49.017635325707296  -19.700338060242593  -26.823338183849778  38.88181938182764  -2.675127568394943  -10.960279060172287  22.30672594299792  0.000000
0.217  0.000000  0.000000  0.000000  -30.074611538250576  -1.3332715790715277  31.627803371508648  48.879337569889366  -19.992776874670312  -26.679131420463694  38.48031980508341  -2.085730959781885  -11.149134507532596  22.326457615305515  0.000000
0.248  0.000000  0.000000  0.000000  -29.878693541823598  -1.4852344454039115  31.16059898321911  48.77667572998384  -20.18379810686426  -26.50670016531451  38.020443006892755  -1.3898916417021605  -11.34832791965957  22.327508820165058  0.000000
0.279  0.000000  0.000000  0.000000  -29.683204787769533  -1.569279035133787  30.769620111281903  48.692703023761815  -20.301473537797445  -26.34504386979311  37.50667079283973  -0.5832927680441168  -11.539072756100955  22.297878058891612  0.000000
0.31  0.000000  0.000000  0.000000  -29.52800240757458  -1.632585763460427  30.465412732060766  48.63281045396471  -20.35214768320759  -26.23023803729266  36.95068027040426  0.3436630872125721  -11.688306585718658  22.233591336555897  0.000000
0.34099999999999997  0.000000  0.000000  0.000000  -29.4368626383818  -1.7055785159150458  30.22153825152791  48.62179658358526  -20.32351903500905  -26.13650949372263  36.3524969739305  1.3878450671495703  -11.785207792740248  22.13750967066331  0.000000
0.372  0.000000  0.000000  0.000000  -29.390178293685576  -1.7650407616799397  30.03187248136818  48.67472040895715  -20.235388536353224  -26.015369678178043  35.706415022154246  2.5272653723227445  -11.85175499283485  22.033997274630597  0.000000
0.403  0.000000  0.000000  0.000000  -29.367367325059508  -1.780545192722161  29.926778107109033  48.789055823753195  -20.124807661853747  -25.86403579307676  35.02595080847105  3.7452414842915354  -11.908023229245233  21.945289017792735  0.000000
0.434  0.000000  0.000000  0.000000  -29.37816518320595  -1.754237822002995  29.93157068009085  48.954124726953324  -20.01389891793325  -25.711425079963618  34.32976186668894  5.0460105828557245  -11.968262080819914  21.86904551548782  0.000000
0.46499999999999997  0.000000  0.000000  0.000000  -29.42749771985547  -1.6982193969071273  30.05151053986893  49.15737079305758  -19.91335961692502  -25.574794711344893  33.63272953200837  6.435770423154132  -12.046089248622451  21.78934733038806  0.000000
0.496  0.000000  0.000000  0.000000  -29.510443230415753  -1.6197729741019402  30.28701453787548  49.39177917888188  -19.831438738266247  -25.46374940560579  32.94619781841568  7.914021500652872  -12.152945589981355  21.703625777608906  0.000000
0.527  0.000000  0.000000  0.000000  -29.621032628688432  -1.5196051910479655  30.637621790715585  49.650379688038996  -19.771956979335613  -25.383156964306963  32.27952934780249  9.474747631301268  -12.29829742089317  21.612161826299808  0.000000
0.558  0.000000  0.000000  0.000000  -29.75808881058471  -1.3963257901212558  31.103724139030923  49.927335072205416  -19.739828946854985  -25.335656237168898  31.638536095814715  11.110212642939144  -12.490162327968244  21.513103896759198  0.000000
0.589  0.000000  0.000000  0.000000  -29.917301914602408  -1.2544603253736324  31.682533114138057  50.22014558810055  -19.73495236275626  -25.326357985445085  31.029117542581293  12.804921370078922  -12.731588624213094  21.40528468543651  0.000000
0.62  0.000000  0.000000  0.000000  -30.08879399331127  -1.0990862529568808  32.36550758238249  50.5196260329086  -19.75342298550795  -25.355023273257697  30.456591705715258  14.533854291137297  -13.020070289171148  21.29148328123729  0.000000
0.651  0.000000  0.000000  0.000000  -30.266998088424298  -0.9322442306621125  33.12624463647192  50.818107245208246  -19.775096796828798  -25.407293885581453  29.927760999394472  16.2732352380609  -13.347837789055724  21.177963880372314  0.000000
0.6819999999999999  0.000000  0.000000  0.000000  -30.44208185964984  -0.7554470337093853  33.93783268172368  51.12053978454154  -19.781417374914128  -25.47469822850098  29.440341008719813  18.014305506763094  -13.709852004414643  21.067075913363638  0.000000
0.713  0.000000  0.000000  0.000000  -30.615248201647038  -0.5695962274775984  34.79082257416813  51.42671580761388  -19.7651695325611  -25.55451510918795  28.98729455805225  19.753564188798215  -14.098695960847458  20.956171612639007  0.000000
0.744  0.000000  0.000000  0.000000  -30.787945394682605  -0.37528282361675663  35.67902729611716  51.73303562955809  -19.725501998963015  -25.64437866828667  28.558919309027  21.48896178643273  -14.506090419175996  20.843680732814228  0.000000
0.775  0.000000  0.000000  0.000000  -30.958135766161917  -0.17302054699698868  36.596194567331274  52.03569257399685  -19.66146577817015  -25.742251889057403  28.148514636961927  23.216084931594327  -14.922136821607758  20.72886113694697  0.000000
0.806  0.000000  0.000000  0.000000  -31.124337020371158  0.036259908799526015  37.535699975487454  52.3313246940165  -19.574122731068474  -25.84509179082888  27.75058855329252  24.931230797037124  -15.339336400022043  20.612156788836348  0.000000
0.837  0.000000  0.000000  0.000000  -31.284980421005166  0.251612957333731  38.49059844554171  52.61705198130369  -19.463673203580036  -25.949745754919  27.362341491692646  26.629737086519093  -15.750927328508283  20.494156849805258  0.000000
